<?xml version="1.0" encoding="UTF-8"?>
<svg width="64px" height="64px" viewBox="-1 -1 66 66" version="1.1" xmlns="http://www.w3.org/2000/svg" xmlns:xlink="http://www.w3.org/1999/xlink">
    <title>Artboard Copy 2</title>
    <defs>
        <path d="M36.9040528,16 C45.578184,16 49.9152496,20.9173724 49.9152496,28.069914 C49.9152496,30.5143548 49.8832117,32.6014864 49.8832117,34.6131387 C49.5646089,35.2215201 49.3821272,35.5256564 49.3357664,35.5255474 L43.6788321,35.5255474 L43.1313869,34.6131387 C43.1313869,32.9775961 43.1391576,31.3517437 43.1391576,28.069914 C43.1391576,24.7171601 42.8612539,25.7282509 41.4451346,24.0466093 C40.6922355,23.1525416 39.1785415,22.6837202 36.9040528,22.640145 L19.8853942,22.640145 C18.1030236,22.640145 16.6433828,23.0731777 15.5087331,23.9391524 C14.3740805,24.8051724 13.8067821,26.104138 13.8067821,27.8374824 L13.8067821,35.9205361 C14.2936991,39.5781587 16.3195458,41.4069351 19.885403,41.4069351 C26.3531167,41.4562647 32.0260029,41.4562647 36.9040616,41.4069351 C39.352128,41.382179 38.0218978,41.3649635 43.6788321,39.1751825 C46.5985401,39.1751825 48.6666667,39.1751825 49.8832117,39.1751825 L57,48.1167883 L48.9708029,48.1167883 L46.4160584,45.9270073 C46.6593674,45.9270073 46.2335766,45.9270073 45.1386861,45.9270073 C41.8540146,47.9343066 41.9409773,47.9640711 36.9040616,48.0471394 C31.2731037,48.1400046 25.6002176,48.1400046 19.885403,48.0471394 C15.9957,48.0471394 12.8748334,47.1811612 10.5251232,45.4491665 C8.1742677,43.7158186 7,40.5409604 7,35.9205431 L7,27.8374894 C7,19.9453764 11.2951343,16 19.885403,16" id="path-1"></path>
    </defs>
    <g id="Artboard-Copy-2" stroke="none" stroke-width="1" fill="none" fill-rule="evenodd">
        <rect id="Rectangle" fill="#FFFFFF" x="0" y="0" width="64" height="64" rx="10"></rect>
        <mask id="mask-2" fill="white">
            <use xlink:href="#path-1"></use>
        </mask>
        <use id="Cledar-Logo-path-Copy-12" fill="#000000" xlink:href="#path-1"></use>
    </g>
</svg>