<?xml version="1.0" encoding="UTF-8"?>
<svg width="64px" height="64px" viewBox="-1 -1 66 66" version="1.1" xmlns="http://www.w3.org/2000/svg" xmlns:xlink="http://www.w3.org/1999/xlink">
    <title>Artboard Copy</title>
    <defs>
        <path d="M35.9040528,16 C44.578184,16 48.9152496,20.9173724 48.9152496,28.069914 C48.9152496,30.5143548 48.8832117,32.6014864 48.8832117,34.6131387 C48.5646089,35.2215201 48.3821272,35.5256564 48.3357664,35.5255474 L42.6788321,35.5255474 L42.1313869,34.6131387 C42.1313869,32.9775961 42.1391576,31.3517437 42.1391576,28.069914 C42.1391576,24.7171601 41.8612539,25.7282509 40.4451346,24.0466093 C39.6922355,23.1525416 38.1785415,22.6837202 35.9040528,22.640145 L18.8853942,22.640145 C17.1030236,22.640145 15.6433828,23.0731777 14.5087331,23.9391524 C13.3740805,24.8051724 12.8067821,26.104138 12.8067821,27.8374824 L12.8067821,35.9205361 C13.2936991,39.5781587 15.3195458,41.4069351 18.885403,41.4069351 C25.3531167,41.4562647 31.0260029,41.4562647 35.9040616,41.4069351 C38.352128,41.382179 37.0218978,41.3649635 42.6788321,39.1751825 C45.5985401,39.1751825 47.6666667,39.1751825 48.8832117,39.1751825 L56,48.1167883 L47.9708029,48.1167883 L45.4160584,45.9270073 C45.6593674,45.9270073 45.2335766,45.9270073 44.1386861,45.9270073 C40.8540146,47.9343066 40.9409773,47.9640711 35.9040616,48.0471394 C30.2731037,48.1400046 24.6002176,48.1400046 18.885403,48.0471394 C14.9957,48.0471394 11.8748334,47.1811612 9.52512322,45.4491665 C7.1742677,43.7158186 6,40.5409604 6,35.9205431 L6,27.8374894 C6,19.9453764 10.2951343,16 18.885403,16" id="path-1"></path>
    </defs>
    <g id="Artboard-Copy" stroke="none" stroke-width="1" fill="none" fill-rule="evenodd">
        <rect id="Rectangle" fill="#000000" x="0" y="0" width="64" height="64" rx="10"></rect>
        <mask id="mask-2" fill="white">
            <use xlink:href="#path-1"></use>
        </mask>
        <use id="Cledar-Logo-path-Copy-12" fill="#FFFFFF" xlink:href="#path-1"></use>
    </g>
</svg>